<svg width="634" height="434" viewBox="0 0 634 434" fill="none" xmlns="http://www.w3.org/2000/svg">
<g clip-path="url(#clip0_18_150)">
<path d="M634 0H0V434H634V0Z" fill="#FFFFFE"/>
<path d="M307.852 169.437L294.357 137.241L289.693 119.439L280.681 136.134C280.5 136.444 280.319 136.754 280.183 137.064C279.368 138.88 279.277 141.006 280.092 142.999L292.093 167.533L307.852 169.437Z" fill="#FFEBCC"/>
<path d="M307.852 170.544C307.807 170.544 307.762 170.544 307.716 170.544L291.912 168.64C291.549 168.596 291.187 168.374 291.051 168.02L279.051 143.486C278.1 141.227 278.145 138.836 279.141 136.666C279.322 136.267 279.503 135.957 279.73 135.603L288.742 118.996C288.968 118.597 289.421 118.376 289.874 118.42C290.327 118.464 290.689 118.774 290.825 119.217L295.489 137.02L308.939 169.083C309.075 169.437 309.03 169.836 308.803 170.146C308.532 170.411 308.215 170.544 307.852 170.544ZM292.817 166.514L306.086 168.153L293.316 137.684L289.285 122.494L281.587 136.666C281.36 136.976 281.224 137.241 281.088 137.507C280.364 139.146 280.319 140.917 280.998 142.556L292.817 166.514Z" fill="black"/>
<path d="M414.274 109.917L387.872 94.9929L361.425 109.917V110.05H358.074H280.364H277.013V109.917L250.566 94.9929L224.164 109.961V110.183L224.21 112.707H251.834C251.879 112.751 251.924 112.796 251.97 112.796L258.355 123.646C258.4 124.044 258.4 124.443 258.4 124.841C258.4 125.24 258.355 125.639 258.355 126.037L251.924 136.887C251.879 136.931 251.834 136.976 251.789 136.976H224.164L224.119 139.5V139.721H224.164L250.566 154.601L277.013 139.677V139.544H280.364H358.119H361.471V139.677L387.917 154.601L414.364 139.677V139.456L414.319 136.931H386.695C386.649 136.887 386.604 136.843 386.559 136.799L380.174 125.949C380.128 125.55 380.128 125.151 380.128 124.753C380.128 124.354 380.174 123.956 380.174 123.557L386.559 112.707C386.604 112.663 386.649 112.619 386.695 112.619H414.319L414.364 110.094L414.274 109.917Z" fill="#FFFFFE"/>
<path d="M387.872 155.797C387.691 155.797 387.465 155.753 387.329 155.664L360.927 140.74H277.602L251.155 155.664C250.792 155.841 250.385 155.841 250.023 155.664L223.712 140.784C223.304 140.607 223.032 140.253 223.032 139.81L223.078 137.02C223.078 136.444 223.576 135.957 224.21 135.957H251.291L257.314 125.771C257.359 125.461 257.359 125.196 257.359 124.886C257.359 124.576 257.359 124.31 257.314 124L251.291 113.814H224.21C223.621 113.814 223.123 113.327 223.078 112.751L223.032 110.006C223.032 109.607 223.259 109.253 223.576 109.076L250.023 94.1514C250.385 93.9743 250.792 93.9743 251.155 94.1514L277.602 109.076H360.927L387.374 94.1514C387.736 93.9743 388.144 93.9743 388.506 94.1514L414.817 109.031C415.225 109.209 415.497 109.563 415.497 110.006L415.451 112.796C415.451 113.371 414.953 113.859 414.319 113.859H387.193L381.17 124.044C381.125 124.354 381.125 124.62 381.125 124.93C381.125 125.24 381.125 125.506 381.17 125.816L387.193 136.001H414.274C414.863 136.001 415.361 136.489 415.406 137.064L415.451 139.81C415.451 140.209 415.225 140.563 414.908 140.74L388.461 155.664C388.28 155.753 388.099 155.797 387.872 155.797ZM362.422 139.057L387.917 153.45L413.232 139.146V138.127H386.695C386.468 138.127 386.242 138.083 386.061 137.95L385.88 137.817C385.744 137.729 385.653 137.596 385.563 137.507L379.177 126.657C379.087 126.524 379.042 126.347 379.042 126.214C378.996 125.771 378.951 125.329 378.951 124.886C378.951 124.443 378.996 124 379.042 123.557C379.042 123.38 379.087 123.247 379.177 123.114L385.563 112.264C385.653 112.131 385.789 111.999 385.925 111.866C386.106 111.733 386.423 111.6 386.65 111.6H413.187V110.581L387.872 96.2772L362.286 110.714C362.059 110.98 361.788 111.157 361.425 111.157H277.013C276.605 111.157 276.243 110.936 276.062 110.626L250.566 96.2329L225.251 110.537V111.556H251.789C252.015 111.556 252.242 111.6 252.423 111.733C252.559 111.821 252.83 112.043 252.921 112.176L259.306 123.026C259.397 123.159 259.442 123.336 259.442 123.469C259.487 123.911 259.533 124.354 259.533 124.797C259.533 125.24 259.487 125.683 259.442 126.126C259.442 126.303 259.397 126.436 259.306 126.569L252.876 137.419C252.785 137.551 252.694 137.684 252.559 137.773C252.377 137.906 252.015 138.083 251.789 138.083H225.251V139.101L250.566 153.406L276.152 138.969C276.379 138.703 276.651 138.526 277.013 138.526H361.471C361.878 138.526 362.241 138.747 362.422 139.057Z" fill="black"/>
<path d="M282.99 126.037H355.493V132.37H282.99V126.037Z" fill="#DBDBDB"/>
<path d="M355.493 133.433H282.99C282.356 133.433 281.858 132.946 281.858 132.326V125.993C281.858 125.683 281.994 125.417 282.175 125.24C282.402 125.019 282.673 124.93 282.945 124.93H355.493C356.127 124.93 356.625 125.417 356.625 126.037V132.37C356.58 132.946 356.082 133.433 355.493 133.433ZM284.123 131.263H354.361V127.1H284.123V131.263Z" fill="black"/>
<path d="M347.16 184.494H291.323V308.849H347.16V184.494Z" fill="#EF4565"/>
<path d="M347.16 309.911H291.323C290.689 309.911 290.191 309.424 290.191 308.804V184.494C290.191 183.874 290.689 183.387 291.323 183.387H347.16C347.794 183.387 348.292 183.874 348.292 184.494V308.849C348.247 309.424 347.749 309.911 347.16 309.911ZM292.41 307.741H346.028V185.557H292.41V307.741Z" fill="black"/>
<path d="M342.451 100.971C338.194 100.971 334.707 104.337 334.707 108.544C334.707 104.381 331.22 100.971 326.963 100.971C322.706 100.971 319.219 104.337 319.219 108.544C319.219 104.381 315.777 100.971 311.475 100.971C307.218 100.971 303.731 104.337 303.731 108.544C303.731 104.381 300.244 100.971 295.987 100.971C291.731 100.971 288.244 104.337 288.244 108.544V157.48C288.244 168.507 297.572 170.987 297.572 170.987V184.494H341.454V171.74L345.666 168.773C349.877 165.407 350.059 157.524 350.059 157.524V108.544C350.149 104.381 346.707 100.971 342.451 100.971Z" fill="#FFEBCC"/>
<path d="M341.545 185.557H297.663C297.029 185.557 296.531 185.07 296.531 184.45V171.74C294.085 170.766 287.202 167.223 287.202 157.48V108.544C287.202 103.761 291.187 99.9086 296.033 99.9086C299.339 99.9086 302.237 101.724 303.777 104.337C305.271 101.68 308.169 99.9086 311.52 99.9086C314.826 99.9086 317.725 101.724 319.264 104.337C320.759 101.68 323.657 99.9086 327.008 99.9086C330.314 99.9086 333.212 101.724 334.752 104.337C336.246 101.68 339.145 99.9086 342.496 99.9086C347.387 99.9086 351.327 103.806 351.327 108.544V157.48C351.327 157.834 351.055 165.939 346.526 169.57L342.722 172.271V184.494C342.677 185.07 342.179 185.557 341.545 185.557ZM298.75 183.387H340.413V171.696C340.413 171.341 340.594 171.031 340.866 170.81L345.077 167.843C348.791 164.876 349.017 157.524 349.017 157.48V108.544C349.017 104.957 346.073 102.079 342.405 102.079C338.737 102.079 335.794 105.001 335.794 108.544C335.794 109.164 335.295 109.651 334.661 109.651C334.027 109.651 333.529 109.164 333.529 108.544C333.529 104.957 330.54 102.079 326.918 102.079C323.249 102.079 320.306 105.001 320.306 108.544C320.306 109.164 319.808 109.651 319.174 109.651C318.54 109.651 318.042 109.164 318.042 108.544C318.042 104.957 315.053 102.079 311.43 102.079C307.807 102.079 304.818 105.001 304.818 108.544C304.818 109.164 304.32 109.651 303.686 109.651C303.052 109.651 302.554 109.164 302.554 108.544C302.554 104.957 299.565 102.079 295.942 102.079C292.274 102.079 289.33 105.001 289.33 108.544V157.48C289.33 167.577 297.754 169.88 297.844 169.924C298.342 170.057 298.659 170.5 298.659 170.987V183.387H298.75Z" fill="black"/>
<path d="M303.777 136.223C303.143 136.223 302.644 135.736 302.644 135.116V108.544C302.644 107.924 303.143 107.437 303.777 107.437C304.411 107.437 304.909 107.924 304.909 108.544V135.116C304.863 135.736 304.365 136.223 303.777 136.223Z" fill="black"/>
<path d="M319.219 136.223C318.585 136.223 318.087 135.736 318.087 135.116V108.544C318.087 107.924 318.585 107.437 319.219 107.437C319.853 107.437 320.351 107.924 320.351 108.544V135.116C320.351 135.736 319.853 136.223 319.219 136.223Z" fill="black"/>
<path d="M334.707 136.223C334.073 136.223 333.575 135.736 333.575 135.116V108.544C333.575 107.924 334.073 107.437 334.707 107.437C335.341 107.437 335.839 107.924 335.839 108.544V135.116C335.794 135.736 335.295 136.223 334.707 136.223Z" fill="black"/>
<path d="M311.339 199.596C311.339 203.67 307.943 206.991 303.777 206.991C299.61 206.991 296.214 203.67 296.214 199.596C296.214 195.521 299.61 192.2 303.777 192.2C307.943 192.2 311.339 195.521 311.339 199.596Z" fill="white"/>
<path d="M303.777 208.099C298.976 208.099 295.082 204.29 295.082 199.596C295.082 194.901 298.976 191.137 303.777 191.137C308.577 191.137 312.426 194.946 312.426 199.596C312.426 204.29 308.532 208.099 303.777 208.099ZM303.777 193.307C300.244 193.307 297.346 196.141 297.346 199.596C297.346 203.05 300.244 205.884 303.777 205.884C307.309 205.884 310.207 203.05 310.207 199.596C310.207 196.141 307.309 193.307 303.777 193.307Z" fill="black"/>
<path d="M334.707 261.507C334.073 261.507 333.575 261.02 333.575 260.4V199.596C333.575 198.976 334.073 198.489 334.707 198.489C335.341 198.489 335.839 198.976 335.839 199.596V260.4C335.794 261.02 335.295 261.507 334.707 261.507Z" fill="black"/>
<path d="M445.068 343.347C445.113 342.727 445.113 342.063 445.113 341.399C445.113 321.957 429.761 306.059 410.289 304.597C410.107 286.661 395.163 272.18 376.777 272.18C375.237 272.18 373.743 272.313 372.294 272.49C372.701 270.497 372.883 268.416 372.883 266.29C372.883 248.177 357.893 233.519 339.371 233.519C323.748 233.519 310.66 243.97 306.901 258.053C299.656 254.421 291.414 252.34 282.673 252.34C253.238 252.34 229.417 275.679 229.417 304.42V304.464C209.356 305.306 193.325 321.514 193.325 341.354C193.325 342.019 193.325 342.639 193.37 343.303H445.068V343.347Z" fill="#3DA9FC"/>
<path d="M445.068 344.454H193.415C192.827 344.454 192.328 344.011 192.283 343.436C192.238 342.771 192.238 342.107 192.238 341.443C192.238 321.381 207.997 304.907 228.331 303.534C228.874 274.66 253.057 251.321 282.719 251.321C290.961 251.321 298.84 253.093 306.222 256.547C310.615 242.287 324.065 232.456 339.371 232.456C358.482 232.456 374.015 247.646 374.015 266.334C374.015 267.973 373.879 269.611 373.652 271.25C374.739 271.161 375.736 271.117 376.777 271.117C395.344 271.117 410.651 285.599 411.375 303.623C430.984 305.616 446.245 322.001 446.245 341.443C446.245 342.107 446.245 342.771 446.2 343.436C446.155 344.011 445.657 344.454 445.068 344.454ZM194.502 342.24H443.981C443.981 341.974 443.981 341.664 443.981 341.399C443.981 322.799 429.127 307.121 410.198 305.704C409.609 305.66 409.156 305.173 409.156 304.641C408.975 287.37 394.439 273.287 376.777 273.287C375.373 273.287 373.969 273.376 372.43 273.597C372.067 273.641 371.705 273.509 371.479 273.287C371.252 273.021 371.116 272.667 371.207 272.313C371.615 270.32 371.796 268.283 371.796 266.334C371.796 248.886 357.259 234.67 339.416 234.67C324.653 234.67 311.747 244.413 308.033 258.407C307.943 258.717 307.716 258.983 307.399 259.116C307.082 259.249 306.72 259.249 306.448 259.071C299.067 255.351 291.097 253.491 282.764 253.491C254.008 253.491 230.595 276.387 230.595 304.509C230.595 305.084 230.142 305.616 229.508 305.66C209.854 306.501 194.502 322.223 194.502 341.443C194.457 341.709 194.502 341.974 194.502 342.24Z" fill="black"/>
<path d="M376.098 313.897H277.375C276.741 313.897 276.243 313.41 276.243 312.79C276.243 312.17 276.741 311.683 277.375 311.683H376.143C382.03 311.683 386.876 306.989 386.876 301.187C386.876 295.386 382.075 290.691 376.143 290.691H339.462C338.828 290.691 338.329 290.204 338.329 289.584C338.329 288.964 338.828 288.477 339.462 288.477H376.143C383.298 288.477 389.095 294.146 389.095 301.143C389.05 308.229 383.253 313.897 376.098 313.897Z" fill="black"/>
<path d="M265.963 313.897H248.075C247.441 313.897 246.943 313.41 246.943 312.79C246.943 312.17 247.441 311.683 248.075 311.683H265.963C266.597 311.683 267.095 312.17 267.095 312.79C267.095 313.41 266.597 313.897 265.963 313.897Z" fill="black"/>
<path d="M356.172 329.176H277.375C276.741 329.176 276.243 328.689 276.243 328.069C276.243 327.449 276.741 326.961 277.375 326.961H356.172C356.806 326.961 357.304 327.449 357.304 328.069C357.304 328.689 356.761 329.176 356.172 329.176Z" fill="black"/>
<path d="M591.173 325H511.169C510.664 325 510.268 324.63 510.268 324.158C510.268 323.687 510.664 323.317 511.169 323.317H590.272V243.842C590.272 243.37 590.669 243 591.173 243C591.678 243 592.074 243.37 592.074 243.842V324.158C592.038 324.63 591.642 325 591.173 325Z" fill="black"/>
<path d="M590.299 305.837H543.202L530.25 295.43L543.202 285.023H590.299V305.837Z" fill="#3DA9FC"/>
<path d="M590.299 306.9H543.247C542.976 306.9 542.749 306.811 542.523 306.634L529.571 296.227C529.299 296.006 529.164 295.696 529.164 295.386C529.164 295.076 529.299 294.766 529.571 294.544L542.523 284.137C542.704 283.96 542.976 283.871 543.247 283.871H590.299C590.933 283.871 591.431 284.359 591.431 284.979V305.793C591.386 306.413 590.888 306.9 590.299 306.9ZM543.61 304.73H589.167V286.13H543.61L532.017 295.43L543.61 304.73Z" fill="black"/>
<path d="M590.299 277.804H516.982C516.71 277.804 516.484 277.716 516.257 277.539L503.305 267.131C503.034 266.91 502.898 266.6 502.898 266.29C502.898 265.98 503.034 265.67 503.305 265.449L516.257 255.041C516.438 254.864 516.71 254.776 516.982 254.776H590.299C590.933 254.776 591.431 255.263 591.431 255.883V276.697C591.386 277.317 590.888 277.804 590.299 277.804ZM517.344 275.59H589.167V256.99H517.344L505.751 266.29L517.344 275.59Z" fill="black"/>
<path d="M266.234 365.136H192.897V386.969H266.234V365.136Z" fill="#EF4565"/>
<path d="M266.208 388.076H192.897C192.528 388.076 192.238 387.589 192.238 386.969V365.136C192.238 364.516 192.528 364.029 192.897 364.029H266.234C266.603 364.029 266.894 364.516 266.894 365.136V386.969C266.867 387.589 266.577 388.076 266.208 388.076ZM193.531 385.906H265.548V366.243H193.531V385.906Z" fill="black"/>
<path d="M443.99 365.107H314.078V386.94H443.99V365.107Z" fill="#3DA9FC"/>
<path d="M443.944 388.047H314.078C313.424 388.047 312.91 387.56 312.91 386.94V365.107C312.91 364.487 313.424 364 314.078 364H443.99C444.645 364 445.159 364.487 445.159 365.107V386.94C445.112 387.56 444.598 388.047 443.944 388.047ZM315.199 385.877H442.775V366.214H315.199V385.877Z" fill="black"/>
<path d="M355.493 78.43H282.99C282.356 78.43 281.858 77.9429 281.858 77.3229C281.858 76.7029 282.356 76.2157 282.99 76.2157H355.493C356.127 76.2157 356.625 76.7029 356.625 77.3229C356.58 77.9429 356.082 78.43 355.493 78.43Z" fill="black"/>
<path d="M307.852 60.1843H282.99C282.356 60.1843 281.858 59.6971 281.858 59.0771C281.858 58.4571 282.356 57.97 282.99 57.97H307.852C308.486 57.97 308.984 58.4571 308.984 59.0771C308.984 59.6971 308.486 60.1843 307.852 60.1843Z" fill="black"/>
<path d="M590.299 142.113H513.766V218.594H590.299V142.113Z" fill="white"/>
<path d="M590.299 219.657H513.766C513.132 219.657 512.634 219.17 512.634 218.55V142.113C512.634 141.493 513.132 141.006 513.766 141.006H590.299C590.933 141.006 591.431 141.493 591.431 142.113V218.594C591.386 219.17 590.888 219.657 590.299 219.657ZM514.853 217.487H589.122V143.22H514.853V217.487Z" fill="black"/>
<path d="M160.357 389.581H45.6933C45.0593 389.581 44.5612 389.094 44.5612 388.474V282.41C44.5612 281.79 45.0593 281.303 45.6933 281.303H160.357C160.991 281.303 161.489 281.79 161.489 282.41V388.474C161.489 389.094 160.991 389.581 160.357 389.581ZM46.8254 387.411H159.27V283.517H46.8254V387.411Z" fill="black"/>
<path d="M101.997 186.926C101.997 201.186 90.1771 212.789 75.5498 212.789C60.9225 212.789 49.1029 201.23 49.1029 186.926C49.1029 172.666 60.9225 161.063 75.5498 161.063C90.1771 161.063 101.997 172.666 101.997 186.926Z" fill="#EF4565"/>
<path d="M75.595 213.851C60.4243 213.851 48.0613 201.761 48.0613 186.926C48.0613 172.09 60.4243 160 75.595 160C90.7657 160 103.129 172.09 103.129 186.926C103.129 201.761 90.7657 213.851 75.595 213.851ZM75.595 162.17C61.647 162.17 50.2803 173.286 50.2803 186.926C50.2803 200.566 61.647 211.681 75.595 211.681C89.543 211.681 100.91 200.566 100.91 186.926C100.91 173.286 89.543 162.17 75.595 162.17Z" fill="black"/>
<path d="M229.689 67.7129C229.689 84.9843 215.379 98.9786 197.717 98.9786C180.056 98.9786 165.746 84.9843 165.746 67.7129C165.746 50.4414 180.056 36.4471 197.717 36.4471C215.379 36.4471 229.689 50.4414 229.689 67.7129Z" fill="#FFFFFE"/>
<path d="M197.717 100.041C179.467 100.041 164.614 85.5157 164.614 67.6686C164.614 49.8214 179.467 35.2957 197.717 35.2957C215.968 35.2957 230.821 49.8214 230.821 67.6686C230.821 85.56 215.968 100.041 197.717 100.041ZM197.717 37.51C180.69 37.51 166.833 51.0614 166.833 67.6686C166.833 84.32 180.69 97.8271 197.717 97.8271C214.745 97.8271 228.602 84.2757 228.602 67.6686C228.602 51.0614 214.745 37.51 197.717 37.51Z" fill="black"/>
<path d="M494.105 280H441.755V295.544H494.105V280Z" fill="#3DA9FC"/>
<path d="M187.331 139H134.981V154.544H187.331V139Z" fill="#EF4565"/>
<path d="M492.76 282H431.653C431.011 282 430.506 281.573 430.506 281.03V216.97C430.506 216.427 431.011 216 431.653 216C432.296 216 432.8 216.427 432.8 216.97V280.099H492.76C493.402 280.099 493.906 280.526 493.906 281.069C493.906 281.573 493.402 282 492.76 282Z" fill="black"/>
<path d="M590.299 377.137H547.142C546.508 377.137 546.01 376.65 546.01 376.03C546.01 375.41 546.508 374.923 547.142 374.923H590.299C590.933 374.923 591.431 375.41 591.431 376.03C591.431 376.65 590.888 377.137 590.299 377.137Z" fill="black"/>
<path d="M535.187 377.137H483.742C483.108 377.137 482.61 376.65 482.61 376.03C482.61 375.41 483.108 374.923 483.742 374.923H535.187C535.821 374.923 536.319 375.41 536.319 376.03C536.319 376.65 535.775 377.137 535.187 377.137Z" fill="black"/>
<path d="M579.204 388.076C578.57 388.076 578.072 387.589 578.072 386.969V370.583C578.072 369.963 578.57 369.476 579.204 369.476C579.838 369.476 580.336 369.963 580.336 370.583V386.969C580.336 387.589 579.838 388.076 579.204 388.076Z" fill="black"/>
<path d="M524.363 388.076C523.729 388.076 523.231 387.589 523.231 386.969V370.583C523.231 369.963 523.729 369.476 524.363 369.476C524.997 369.476 525.495 369.963 525.495 370.583V386.969C525.495 387.589 524.997 388.076 524.363 388.076Z" fill="black"/>
<path d="M123.992 388.519V334.977H124.219L145.367 299.106L124.219 263.234H123.902L120.324 263.279V300.789C120.279 300.877 120.234 300.921 120.188 301.01L104.791 309.69C104.202 309.734 103.659 309.779 103.07 309.779C102.482 309.779 101.938 309.734 101.349 309.69L85.9523 301.01C85.907 300.966 85.8617 300.877 85.8164 300.833V263.323L82.2389 263.279H81.8766V263.323L60.6829 299.106L81.8313 334.977H82.0577V388.519H123.992Z" fill="#5F6C7B"/>
<path d="M123.992 389.581H82.103C81.469 389.581 80.9708 389.094 80.9708 388.474V335.597C80.9255 335.553 80.9255 335.553 80.9255 335.509L59.7771 299.637C59.5959 299.283 59.5959 298.884 59.7771 298.53L80.8802 262.791C81.0614 262.393 81.4237 262.127 81.8765 262.127L85.8164 262.171C86.4051 262.171 86.9032 262.659 86.9032 263.279V300.257L101.666 308.583C102.572 308.671 103.523 308.671 104.429 308.583L119.192 300.257V263.279C119.192 262.703 119.69 262.216 120.279 262.171L124.173 262.127C124.581 262.127 124.943 262.349 125.124 262.659L146.273 298.53C146.454 298.884 146.454 299.283 146.273 299.637L125.124 335.509C125.124 335.553 125.079 335.597 125.079 335.597V388.474C125.079 389.094 124.581 389.581 123.992 389.581ZM83.1898 387.411H122.86V334.977C122.86 334.534 123.132 334.18 123.494 334.003L144.099 299.15L123.585 264.386L121.456 264.43V300.833C121.456 301.054 121.411 301.231 121.275 301.409C121.275 301.453 121.139 301.586 121.139 301.63C121.049 301.719 120.868 301.94 120.732 301.984L105.335 310.664C105.199 310.753 105.018 310.797 104.882 310.797C103.704 310.886 102.436 310.886 101.259 310.797C101.078 310.797 100.942 310.753 100.806 310.664L85.4088 301.984C85.273 301.896 85.1371 301.763 85.0465 301.63C84.9107 301.453 84.7295 301.054 84.7295 300.833V264.386L82.6011 264.341L62.0867 299.106L82.7369 334.091C83.0539 334.313 83.2804 334.579 83.2804 334.933V387.411H83.1898Z" fill="black"/>
<path d="M572.574 218.391V164.85H572.8L593.948 128.979L572.8 93.1071H572.483L568.905 93.1514V130.661C568.86 130.75 568.815 130.794 568.77 130.883L553.372 139.563C552.784 139.607 552.24 139.651 551.652 139.651C551.063 139.651 550.519 139.607 549.931 139.563L534.534 130.883C534.488 130.839 534.443 130.75 534.398 130.706V93.1957L530.82 93.1514H530.458V93.1957L509.264 128.979L530.413 164.85H530.639V218.391H572.574Z" fill="#FFFFFE"/>
<path d="M572.574 219.454H530.684C530.05 219.454 529.552 218.967 529.552 218.347V165.47C529.507 165.426 529.507 165.426 529.507 165.381L508.359 129.51C508.177 129.156 508.177 128.757 508.359 128.403L529.462 92.6643C529.643 92.2657 530.005 92 530.458 92L534.398 92.0443C534.987 92.0443 535.485 92.5314 535.485 93.1514V130.13L550.248 138.456C551.154 138.544 552.105 138.544 553.01 138.456L567.773 130.13V93.1514C567.773 92.5757 568.272 92.0886 568.86 92.0443L572.755 92C573.162 92 573.525 92.2214 573.706 92.5314L594.854 128.403C595.035 128.757 595.035 129.156 594.854 129.51L573.706 165.381C573.706 165.426 573.661 165.47 573.661 165.47V218.347C573.661 218.967 573.162 219.454 572.574 219.454ZM531.771 217.284H571.442V164.85C571.442 164.407 571.713 164.053 572.076 163.876L592.681 129.023L572.166 94.2586L570.038 94.3028V130.706C570.038 130.927 569.992 131.104 569.857 131.281C569.857 131.326 569.721 131.459 569.721 131.503C569.63 131.591 569.449 131.813 569.313 131.857L553.916 140.537C553.78 140.626 553.599 140.67 553.463 140.67C552.286 140.759 551.018 140.759 549.84 140.67C549.659 140.67 549.523 140.626 549.387 140.537L533.99 131.857C533.854 131.769 533.719 131.636 533.628 131.503C533.492 131.326 533.311 130.927 533.311 130.706V94.2586L531.183 94.2143L510.668 128.979L531.318 163.964C531.635 164.186 531.862 164.451 531.862 164.806V217.284H531.771Z" fill="black"/>
<path d="M580.883 199.214H547.19C546.556 199.214 546.058 198.727 546.058 198.107C546.058 197.487 546.556 197 547.19 197H580.883C581.517 197 582.015 197.487 582.015 198.107C582.015 198.727 581.471 199.214 580.883 199.214Z" fill="black"/>
<path d="M173.625 373.506H123.992C123.358 373.506 122.86 373.019 122.86 372.399C122.86 371.779 123.358 371.291 123.992 371.291H173.625C174.259 371.291 174.758 371.779 174.758 372.399C174.758 373.019 174.214 373.506 173.625 373.506Z" fill="black"/>
<path d="M173.625 357.031H123.992C123.358 357.031 122.86 356.544 122.86 355.924C122.86 355.304 123.358 354.817 123.992 354.817H173.625C174.259 354.817 174.758 355.304 174.758 355.924C174.758 356.544 174.214 357.031 173.625 357.031Z" fill="black"/>
<path d="M173.625 340.557H123.992C123.358 340.557 122.86 340.07 122.86 339.45C122.86 338.83 123.358 338.343 123.992 338.343H173.625C174.259 338.343 174.758 338.83 174.758 339.45C174.758 340.07 174.214 340.557 173.625 340.557Z" fill="black"/>
<path d="M82.0577 373.506H40.1231C39.4891 373.506 38.991 373.019 38.991 372.399C38.991 371.779 39.4891 371.291 40.1231 371.291H82.0577C82.6917 371.291 83.1898 371.779 83.1898 372.399C83.1898 373.019 82.6917 373.506 82.0577 373.506Z" fill="black"/>
<path d="M82.0577 357.031H60.6828C60.0488 357.031 59.5507 356.544 59.5507 355.924C59.5507 355.304 60.0488 354.817 60.6828 354.817H82.0577C82.6917 354.817 83.1898 355.304 83.1898 355.924C83.1898 356.544 82.6917 357.031 82.0577 357.031Z" fill="black"/>
<path d="M111.629 389.581C110.995 389.581 110.497 389.094 110.497 388.474V332.719C110.497 332.099 110.995 331.611 111.629 331.611C112.263 331.611 112.761 332.099 112.761 332.719V388.474C112.761 389.094 112.263 389.581 111.629 389.581Z" fill="black"/>
<path d="M124.943 79.5814H140.793L124.943 64.1257V79.5814Z" fill="white"/>
<path d="M216.919 68.7757H178.562C177.928 68.7757 177.429 68.2886 177.429 67.6686C177.429 67.0486 177.928 66.5614 178.562 66.5614H216.919C217.553 66.5614 218.051 67.0486 218.051 67.6686C218.051 68.2886 217.507 68.7757 216.919 68.7757Z" fill="black"/>
<path d="M197.717 87.5529C197.083 87.5529 196.585 87.0657 196.585 86.4457V48.9357C196.585 48.3157 197.083 47.8286 197.717 47.8286C198.351 47.8286 198.85 48.3157 198.85 48.9357V86.4457C198.85 87.0657 198.351 87.5529 197.717 87.5529Z" fill="black"/>
<path d="M245.947 231.836C248.437 227.141 250.158 222.049 251.019 216.646L237.388 212.306C237.478 211.287 237.524 210.269 237.524 209.25C237.524 208.231 237.433 207.213 237.388 206.194L251.019 201.854C250.204 196.451 248.437 191.359 245.947 186.664L232.27 191.004C231.184 189.233 229.961 187.594 228.602 186.089L237.025 174.707C233.176 170.899 228.738 167.754 223.847 165.319L215.424 176.656C213.522 175.859 211.53 175.239 209.446 174.796V160.757C206.775 160.314 204.057 160.093 201.295 160.093C198.533 160.093 195.77 160.314 193.144 160.757V174.796C191.106 175.283 189.068 175.859 187.166 176.656L178.743 165.319C173.807 167.754 169.369 170.899 165.519 174.707L173.942 186.044C172.584 187.594 171.361 189.233 170.274 190.96L156.598 186.62C154.107 191.314 152.386 196.407 151.526 201.81L165.157 206.15C165.066 207.169 165.021 208.187 165.021 209.206C165.021 210.224 165.112 211.243 165.157 212.261L151.526 216.601C152.341 222.004 154.107 227.097 156.598 231.791L170.274 227.451C171.361 229.223 172.584 230.861 173.942 232.411L165.519 243.749C169.369 247.557 173.807 250.701 178.743 253.137L187.166 241.8C189.068 242.597 191.06 243.173 193.144 243.66V257.743C195.815 258.186 198.533 258.407 201.295 258.407C204.057 258.407 206.775 258.186 209.446 257.743V243.704C211.484 243.261 213.522 242.641 215.424 241.844L223.847 253.181C228.738 250.746 233.221 247.601 237.025 243.793L228.602 232.456C229.961 230.906 231.184 229.267 232.27 227.54L245.947 231.836ZM200.027 233.341C188.162 232.323 178.743 223.111 177.656 211.553H194.593C195.363 214.077 197.446 216.07 200.027 216.823V233.341ZM200.027 201.721C197.4 202.474 195.363 204.467 194.593 206.991H177.656C178.743 195.433 188.207 186.221 200.027 185.203V201.721ZM204.646 233.341V216.779C207.182 215.981 209.175 214.033 209.899 211.553H226.881C225.795 223.023 216.42 232.19 204.646 233.341ZM209.945 206.991C209.175 204.511 207.182 202.563 204.691 201.766V185.203C216.466 186.31 225.795 195.477 226.881 206.991H209.945Z" fill="#5F6C7B"/>
<path d="M201.295 259.47C198.533 259.47 195.725 259.249 192.962 258.806C192.419 258.717 192.011 258.274 192.011 257.743V244.59C190.426 244.191 188.932 243.749 187.573 243.217L179.694 253.846C179.377 254.289 178.788 254.421 178.29 254.2C173.263 251.72 168.735 248.487 164.795 244.59C164.432 244.191 164.387 243.616 164.704 243.173L172.629 232.5C171.633 231.349 170.727 230.109 169.912 228.824L157.096 232.899C156.598 233.076 156.009 232.854 155.783 232.367C153.202 227.496 151.435 222.27 150.62 216.867C150.53 216.336 150.847 215.849 151.39 215.671L164.206 211.597C164.161 210.844 164.115 210.091 164.115 209.294C164.115 208.541 164.161 207.789 164.206 207.036L151.39 202.961C150.892 202.784 150.53 202.297 150.62 201.766C151.435 196.363 153.202 191.137 155.783 186.221C156.055 185.734 156.598 185.513 157.141 185.69L169.957 189.764C170.818 188.48 171.723 187.24 172.674 186.089L164.659 175.371C164.342 174.929 164.387 174.353 164.749 173.954C168.689 170.057 173.218 166.824 178.245 164.344C178.743 164.123 179.331 164.256 179.648 164.699L187.528 175.327C188.932 174.796 190.381 174.353 191.966 173.954V160.757C191.966 160.226 192.374 159.783 192.917 159.694C198.487 158.809 204.012 158.809 209.582 159.694C210.126 159.783 210.533 160.226 210.533 160.757V173.954C212.118 174.353 213.613 174.796 214.971 175.327L222.896 164.699C223.213 164.256 223.802 164.123 224.3 164.344C229.327 166.824 233.855 170.057 237.795 173.954C238.158 174.353 238.248 174.929 237.886 175.371L229.961 186.044C230.912 187.196 231.863 188.436 232.678 189.72L245.494 185.646C245.992 185.469 246.581 185.69 246.807 186.177C249.388 191.093 251.155 196.319 251.97 201.677C252.06 202.209 251.743 202.696 251.2 202.873L238.384 206.947C238.429 207.7 238.475 208.453 238.475 209.206C238.475 209.959 238.429 210.711 238.384 211.464L251.2 215.539C251.698 215.716 252.06 216.203 251.97 216.734C251.155 222.137 249.388 227.363 246.807 232.234C246.535 232.721 245.992 232.943 245.494 232.766L232.678 228.691C231.818 229.976 230.912 231.216 229.961 232.367L237.886 243.04C238.203 243.483 238.158 244.059 237.795 244.457C233.855 248.354 229.327 251.587 224.3 254.067C223.802 254.289 223.213 254.156 222.896 253.713L214.971 243.084C213.567 243.616 212.073 244.103 210.533 244.457V257.743C210.533 258.274 210.126 258.717 209.582 258.806C206.865 259.249 204.057 259.47 201.295 259.47ZM194.23 256.813C198.94 257.477 203.605 257.477 208.314 256.813V243.704C208.314 243.173 208.677 242.774 209.175 242.641C211.258 242.154 213.205 241.579 214.926 240.826C215.379 240.604 215.968 240.781 216.285 241.18L224.164 251.764C228.376 249.594 232.18 246.893 235.576 243.66L227.697 233.076C227.38 232.677 227.425 232.101 227.742 231.703C229.055 230.241 230.233 228.647 231.274 226.92C231.546 226.477 232.089 226.3 232.587 226.433L245.358 230.463C247.486 226.3 248.936 221.916 249.705 217.354L236.98 213.28C236.482 213.103 236.165 212.66 236.21 212.173C236.301 211.199 236.346 210.224 236.346 209.206C236.346 208.187 236.256 207.213 236.21 206.239C236.165 205.751 236.482 205.264 236.98 205.131L249.705 201.057C248.936 196.54 247.441 192.111 245.358 187.949L232.587 191.979C232.089 192.111 231.546 191.934 231.274 191.491C230.233 189.764 229.01 188.17 227.742 186.709C227.38 186.31 227.38 185.779 227.697 185.336L235.576 174.751C232.18 171.519 228.376 168.817 224.164 166.647L216.285 177.231C215.968 177.63 215.424 177.807 214.926 177.586C213.16 176.877 211.303 176.257 209.175 175.77C208.677 175.637 208.314 175.194 208.314 174.707V161.599C203.605 160.934 198.94 160.934 194.23 161.599V174.707C194.23 175.194 193.868 175.637 193.37 175.77C191.242 176.257 189.34 176.833 187.573 177.586C187.075 177.807 186.532 177.63 186.215 177.231L178.426 166.736C174.259 168.906 170.41 171.607 167.014 174.84L174.893 185.424C175.21 185.823 175.165 186.399 174.848 186.797C173.535 188.259 172.357 189.853 171.316 191.58C171.044 192.023 170.501 192.2 170.003 192.067L157.277 188.037C155.194 192.2 153.7 196.584 152.93 201.146L165.655 205.176C166.153 205.353 166.47 205.796 166.425 206.327C166.334 207.301 166.289 208.276 166.289 209.294C166.289 210.313 166.334 211.287 166.425 212.261C166.47 212.749 166.153 213.236 165.655 213.413L152.93 217.443C153.745 222.004 155.194 226.389 157.277 230.551L170.003 226.521C170.501 226.344 171.044 226.566 171.316 227.009C172.357 228.736 173.58 230.33 174.848 231.791C175.21 232.19 175.21 232.721 174.893 233.164L167.014 243.749C170.41 246.981 174.214 249.683 178.426 251.853L186.26 241.269C186.577 240.87 187.121 240.693 187.619 240.914C189.34 241.623 191.287 242.243 193.37 242.73C193.868 242.863 194.23 243.306 194.23 243.793V256.813ZM200.027 234.449C199.982 234.449 199.982 234.449 199.936 234.449C187.528 233.341 177.701 223.776 176.524 211.641C176.478 211.331 176.614 211.021 176.795 210.8C177.022 210.579 177.294 210.446 177.611 210.446H194.547C195.046 210.446 195.453 210.756 195.634 211.199C196.314 213.413 198.08 215.096 200.344 215.716C200.842 215.849 201.159 216.291 201.159 216.779V233.341C201.159 233.651 201.023 233.961 200.797 234.139C200.57 234.316 200.299 234.449 200.027 234.449ZM178.879 212.616C180.373 222.713 188.524 230.684 198.895 232.101V217.576C196.54 216.69 194.729 214.874 193.778 212.616H178.879ZM204.646 234.404C204.374 234.404 204.103 234.316 203.876 234.139C203.65 233.917 203.514 233.651 203.514 233.341V216.779C203.514 216.291 203.831 215.893 204.284 215.716C206.458 215.051 208.178 213.369 208.812 211.243C208.948 210.8 209.401 210.446 209.899 210.446H226.881C227.198 210.446 227.515 210.579 227.697 210.8C227.923 211.021 228.014 211.331 227.968 211.641C226.836 223.687 217.054 233.253 204.737 234.404C204.737 234.404 204.691 234.404 204.646 234.404ZM205.778 217.487V232.057C216.013 230.551 224.119 222.624 225.613 212.571H210.714C209.809 214.83 208.043 216.601 205.778 217.487ZM226.881 208.054H209.945C209.446 208.054 209.039 207.744 208.858 207.257C208.178 205.131 206.503 203.449 204.329 202.784C203.876 202.651 203.559 202.209 203.559 201.721V185.159C203.559 184.849 203.695 184.539 203.922 184.361C204.148 184.14 204.465 184.051 204.782 184.096C217.1 185.247 226.836 194.857 228.014 206.859C228.059 207.169 227.923 207.479 227.742 207.7C227.47 207.966 227.198 208.054 226.881 208.054ZM210.714 205.884H225.613C224.119 195.831 216.013 187.904 205.778 186.399V200.969C208.043 201.899 209.809 203.67 210.714 205.884ZM194.547 208.054H177.611C177.294 208.054 176.977 207.921 176.795 207.7C176.569 207.479 176.478 207.169 176.524 206.859C177.701 194.724 187.528 185.159 199.936 184.051C200.253 184.007 200.57 184.14 200.797 184.317C201.023 184.539 201.159 184.804 201.159 185.114V201.677C201.159 202.164 200.842 202.607 200.344 202.74C198.08 203.36 196.314 205.087 195.634 207.257C195.498 207.744 195.046 208.054 194.547 208.054ZM178.879 205.884H193.778C194.729 203.626 196.585 201.81 198.895 200.924V186.399C188.57 187.816 180.418 195.787 178.879 205.884Z" fill="black"/>
<path d="M429.045 259.44C426.282 259.44 423.475 259.219 420.712 258.776C420.169 258.687 419.761 258.244 419.761 257.713V244.56C418.176 244.161 416.682 243.719 415.323 243.187L407.444 253.816C407.127 254.259 406.538 254.391 406.04 254.17C401.013 251.69 396.484 248.457 392.545 244.56C392.182 244.161 392.137 243.586 392.454 243.143L400.379 232.47C399.383 231.319 398.477 230.079 397.662 228.794L384.846 232.869C384.348 233.046 383.759 232.824 383.533 232.337C380.951 227.466 379.185 222.24 378.37 216.837C378.28 216.306 378.597 215.819 379.14 215.641L391.956 211.567C391.911 210.814 391.865 210.061 391.865 209.264C391.865 208.511 391.911 207.759 391.956 207.006L379.14 202.931C378.642 202.754 378.28 202.267 378.37 201.736C379.185 196.333 380.951 191.107 383.533 186.191C383.804 185.704 384.348 185.483 384.891 185.66L397.707 189.734C398.568 188.45 399.473 187.21 400.424 186.059L392.409 175.341C392.092 174.899 392.137 174.323 392.499 173.924C396.439 170.027 400.968 166.794 405.994 164.314C406.493 164.093 407.081 164.226 407.398 164.669L415.278 175.297C416.682 174.766 418.131 174.323 419.716 173.924V160.727C419.716 160.196 420.124 159.753 420.667 159.664C426.237 158.779 431.762 158.779 437.332 159.664C437.876 159.753 438.283 160.196 438.283 160.727V173.924C439.868 174.323 441.363 174.766 442.721 175.297L450.646 164.669C450.963 164.226 451.552 164.093 452.05 164.314C457.077 166.794 461.605 170.027 465.545 173.924C465.907 174.323 465.998 174.899 465.636 175.341L457.711 186.014C458.662 187.166 459.613 188.406 460.428 189.69L473.244 185.616C473.742 185.439 474.331 185.66 474.557 186.147C477.138 191.063 478.905 196.289 479.72 201.647C479.81 202.179 479.493 202.666 478.95 202.843L466.134 206.917C466.179 207.67 466.224 208.423 466.224 209.176C466.224 209.929 466.179 210.681 466.134 211.434L478.95 215.509C479.448 215.686 479.81 216.173 479.72 216.704C478.905 222.107 477.138 227.333 474.557 232.204C474.285 232.691 473.742 232.913 473.244 232.736L460.428 228.661C459.567 229.946 458.662 231.186 457.711 232.337L465.636 243.01C465.953 243.453 465.907 244.029 465.545 244.427C461.605 248.324 457.077 251.557 452.05 254.037C451.552 254.259 450.963 254.126 450.646 253.683L442.721 243.054C441.317 243.586 439.823 244.073 438.283 244.427V257.713C438.283 258.244 437.876 258.687 437.332 258.776C434.615 259.219 431.807 259.44 429.045 259.44ZM421.98 256.783C426.69 257.447 431.354 257.447 436.064 256.783V243.674C436.064 243.143 436.426 242.744 436.925 242.611C439.008 242.124 440.955 241.549 442.676 240.796C443.129 240.574 443.717 240.751 444.035 241.15L451.914 251.734C456.126 249.564 459.93 246.863 463.326 243.63L455.446 233.046C455.129 232.647 455.175 232.071 455.492 231.673C456.805 230.211 457.982 228.617 459.024 226.89C459.296 226.447 459.839 226.27 460.337 226.403L473.108 230.433C475.236 226.27 476.686 221.886 477.455 217.324L464.73 213.25C464.232 213.073 463.915 212.63 463.96 212.143C464.051 211.169 464.096 210.194 464.096 209.176C464.096 208.157 464.005 207.183 463.96 206.209C463.915 205.721 464.232 205.234 464.73 205.101L477.455 201.027C476.686 196.51 475.191 192.081 473.108 187.919L460.337 191.949C459.839 192.081 459.296 191.904 459.024 191.461C457.982 189.734 456.76 188.14 455.492 186.679C455.129 186.28 455.129 185.749 455.446 185.306L463.326 174.721C459.93 171.489 456.126 168.787 451.914 166.617L444.035 177.201C443.717 177.6 443.174 177.777 442.676 177.556C440.91 176.847 439.053 176.227 436.925 175.74C436.426 175.607 436.064 175.164 436.064 174.677V161.569C431.354 160.904 426.69 160.904 421.98 161.569V174.677C421.98 175.164 421.618 175.607 421.12 175.74C418.991 176.227 417.09 176.803 415.323 177.556C414.825 177.777 414.282 177.6 413.965 177.201L406.176 166.706C402.009 168.876 398.16 171.577 394.764 174.81L402.643 185.394C402.96 185.793 402.915 186.369 402.598 186.767C401.285 188.229 400.107 189.823 399.066 191.55C398.794 191.993 398.251 192.17 397.752 192.037L385.027 188.007C382.944 192.17 381.45 196.554 380.68 201.116L393.405 205.146C393.903 205.323 394.22 205.766 394.175 206.297C394.084 207.271 394.039 208.246 394.039 209.264C394.039 210.283 394.084 211.257 394.175 212.231C394.22 212.719 393.903 213.206 393.405 213.383L380.68 217.413C381.495 221.974 382.944 226.359 385.027 230.521L397.752 226.491C398.251 226.314 398.794 226.536 399.066 226.979C400.107 228.706 401.33 230.3 402.598 231.761C402.96 232.16 402.96 232.691 402.643 233.134L394.764 243.719C398.16 246.951 401.964 249.653 406.176 251.823L414.01 241.239C414.327 240.84 414.87 240.663 415.369 240.884C417.089 241.593 419.037 242.213 421.12 242.7C421.618 242.833 421.98 243.276 421.98 243.763V256.783ZM427.777 234.419C427.732 234.419 427.732 234.419 427.686 234.419C415.278 233.311 405.451 223.746 404.274 211.611C404.228 211.301 404.364 210.991 404.545 210.77C404.772 210.549 405.044 210.416 405.361 210.416H422.297C422.795 210.416 423.203 210.726 423.384 211.169C424.063 213.383 425.83 215.066 428.094 215.686C428.592 215.819 428.909 216.261 428.909 216.749V233.311C428.909 233.621 428.773 233.931 428.547 234.109C428.32 234.286 428.049 234.419 427.777 234.419ZM406.628 212.586C408.123 222.683 416.274 230.654 426.645 232.071V217.546C424.29 216.66 422.478 214.844 421.527 212.586H406.628ZM432.396 234.374C432.124 234.374 431.853 234.286 431.626 234.109C431.4 233.887 431.264 233.621 431.264 233.311V216.749C431.264 216.261 431.581 215.863 432.034 215.686C434.207 215.021 435.928 213.339 436.562 211.213C436.698 210.77 437.151 210.416 437.649 210.416H454.631C454.948 210.416 455.265 210.549 455.446 210.77C455.673 210.991 455.763 211.301 455.718 211.611C454.586 223.657 444.804 233.223 432.487 234.374C432.487 234.374 432.441 234.374 432.396 234.374ZM433.528 217.457V232.027C443.763 230.521 451.869 222.594 453.363 212.541H438.464C437.559 214.8 435.792 216.571 433.528 217.457ZM454.631 208.024H437.694C437.196 208.024 436.789 207.714 436.608 207.227C435.928 205.101 434.253 203.419 432.079 202.754C431.626 202.621 431.309 202.179 431.309 201.691V185.129C431.309 184.819 431.445 184.509 431.671 184.331C431.898 184.11 432.215 184.021 432.532 184.066C444.85 185.217 454.586 194.827 455.763 206.829C455.809 207.139 455.673 207.449 455.492 207.67C455.22 207.936 454.948 208.024 454.631 208.024ZM438.464 205.854H453.363C451.869 195.801 443.763 187.874 433.528 186.369V200.939C435.792 201.869 437.559 203.64 438.464 205.854ZM422.297 208.024H405.361C405.044 208.024 404.726 207.891 404.545 207.67C404.319 207.449 404.228 207.139 404.274 206.829C405.451 194.694 415.278 185.129 427.686 184.021C428.003 183.977 428.32 184.11 428.547 184.287C428.773 184.509 428.909 184.774 428.909 185.084V201.647C428.909 202.134 428.592 202.577 428.094 202.71C425.83 203.33 424.063 205.057 423.384 207.227C423.248 207.714 422.795 208.024 422.297 208.024ZM406.628 205.854H421.527C422.478 203.596 424.335 201.78 426.645 200.894V186.369C416.32 187.786 408.168 195.757 406.628 205.854Z" fill="black"/>
<path d="M159.55 258.055C131.882 236.51 127.26 196.965 149.32 169.873C149.712 169.386 150.404 169.242 150.91 169.687C151.409 170.07 151.493 170.754 151.101 171.242C129.824 197.359 134.278 235.535 160.985 256.342C161.484 256.725 161.567 257.409 161.176 257.896C160.748 258.357 160.049 258.439 159.55 258.055Z" fill="black"/>
<path d="M487.783 77.5C487.783 94.3369 473.799 108.012 456.582 108.012C439.365 108.012 425.381 94.3369 425.381 77.5C425.381 60.6631 439.365 46.9881 456.582 46.9881C473.799 46.9881 487.783 60.6631 487.783 77.5Z" fill="#3DA9FC"/>
<path d="M456.582 108.96C438.84 108.96 424.371 94.8507 424.371 77.5C424.371 60.1493 438.799 46 456.582 46C474.325 46 488.794 60.1098 488.794 77.5C488.794 94.8507 474.325 108.96 456.582 108.96ZM456.582 47.9762C439.931 47.9762 426.392 61.2164 426.392 77.5C426.392 93.7836 439.931 107.024 456.582 107.024C473.234 107.024 486.773 93.7836 486.773 77.5C486.773 61.2164 473.234 47.9762 456.582 47.9762Z" fill="black"/>
</g>
<defs>
<clipPath id="clip0_18_150">
<rect width="634" height="434" fill="white"/>
</clipPath>
</defs>
</svg>
