<svg width="31" height="32" viewBox="0 0 31 32" fill="none" xmlns="http://www.w3.org/2000/svg">
<path d="M6.66338 14.6879H21.8305L17.1883 9.11209C16.9712 8.85093 16.8668 8.51424 16.898 8.17607C16.9291 7.83791 17.0934 7.52599 17.3545 7.30892C17.6157 7.09185 17.9524 6.98742 18.2905 7.0186C18.6287 7.04977 18.9406 7.21401 19.1577 7.47517L25.5519 15.1482C25.595 15.2093 25.6334 15.2734 25.667 15.3401C25.667 15.404 25.667 15.4424 25.7565 15.5063C25.8145 15.653 25.8449 15.809 25.8461 15.9667C25.8449 16.1244 25.8145 16.2805 25.7565 16.4271C25.7565 16.491 25.7566 16.5294 25.667 16.5933C25.6334 16.66 25.595 16.7241 25.5519 16.7852L19.1577 24.4582C19.0375 24.6026 18.8869 24.7187 18.7167 24.7983C18.5465 24.8778 18.3609 24.9189 18.173 24.9186C17.8742 24.9192 17.5846 24.8151 17.3545 24.6245C17.225 24.5171 17.118 24.3853 17.0395 24.2365C16.9611 24.0877 16.9127 23.9249 16.8973 23.7574C16.8819 23.5899 16.8996 23.421 16.9495 23.2604C16.9995 23.0997 17.0806 22.9505 17.1883 22.8213L21.8305 17.2456H6.66338C6.32421 17.2456 5.99893 17.1108 5.7591 16.871C5.51927 16.6312 5.38453 16.3059 5.38453 15.9667C5.38453 15.6275 5.51927 15.3023 5.7591 15.0624C5.99893 14.8226 6.32421 14.6879 6.66338 14.6879Z" fill="white"/>
</svg>
