<svg width="32" height="32" viewBox="0 0 32 32" fill="none" xmlns="http://www.w3.org/2000/svg">
<path d="M24.7211 14.6879H9.55403L14.1962 9.11209C14.4133 8.85093 14.5177 8.51424 14.4866 8.17607C14.4554 7.83791 14.2912 7.52599 14.03 7.30892C13.7688 7.09185 13.4321 6.98742 13.094 7.0186C12.7558 7.04977 12.4439 7.21401 12.2268 7.47517L5.83259 15.1482C5.78957 15.2093 5.7511 15.2734 5.71749 15.3401C5.71749 15.404 5.71749 15.4424 5.62797 15.5063C5.57001 15.653 5.53966 15.809 5.53845 15.9667C5.53966 16.1244 5.57001 16.2805 5.62797 16.4271C5.62797 16.491 5.62797 16.5294 5.71749 16.5933C5.7511 16.66 5.78957 16.7241 5.83259 16.7852L12.2268 24.4582C12.3471 24.6026 12.4976 24.7187 12.6678 24.7983C12.838 24.8778 13.0237 24.9189 13.2115 24.9186C13.5103 24.9192 13.7999 24.8151 14.03 24.6245C14.1595 24.5171 14.2665 24.3853 14.345 24.2365C14.4234 24.0877 14.4718 23.9249 14.4872 23.7574C14.5027 23.5899 14.4849 23.421 14.435 23.2604C14.3851 23.0997 14.3039 22.9505 14.1962 22.8213L9.55403 17.2456H24.7211C25.0603 17.2456 25.3856 17.1108 25.6254 16.871C25.8653 16.6312 26 16.3059 26 15.9667C26 15.6275 25.8653 15.3023 25.6254 15.0624C25.3856 14.8226 25.0603 14.6879 24.7211 14.6879Z" fill="#3DA9FC"/>
</svg>
