<svg width="21" height="18" viewBox="0 0 21 18" fill="none" xmlns="http://www.w3.org/2000/svg">
<path d="M1.27886 7.67468H16.446L11.8038 2.09891C11.5867 1.83775 11.4823 1.50105 11.5134 1.16289C11.5446 0.824731 11.7088 0.512805 11.97 0.295736C12.2312 0.0786665 12.5679 -0.0257665 12.906 0.00541144C13.2442 0.0365894 13.5561 0.200824 13.7732 0.461986L20.1674 8.13506C20.2104 8.19609 20.2489 8.26021 20.2825 8.32689C20.2825 8.39083 20.2825 8.4292 20.372 8.49314C20.43 8.63977 20.4603 8.79586 20.4615 8.95352C20.4603 9.11119 20.43 9.26728 20.372 9.41391C20.372 9.47785 20.372 9.51622 20.2825 9.58016C20.2489 9.64684 20.2104 9.71095 20.1674 9.77199L13.7732 17.4451C13.6529 17.5894 13.5024 17.7055 13.3322 17.7851C13.162 17.8647 12.9763 17.9058 12.7885 17.9054C12.4897 17.906 12.2001 17.802 11.97 17.6113C11.8405 17.504 11.7335 17.3721 11.655 17.2233C11.5766 17.0745 11.5282 16.9117 11.5128 16.7442C11.4973 16.5767 11.5151 16.4078 11.565 16.2472C11.6149 16.0866 11.6961 15.9374 11.8038 15.8081L16.446 10.2324H1.27886C0.939686 10.2324 0.614407 10.0976 0.374577 9.8578C0.134747 9.61797 1.14441e-05 9.2927 1.14441e-05 8.95352C1.14441e-05 8.61435 0.134747 8.28907 0.374577 8.04924C0.614407 7.80941 0.939686 7.67468 1.27886 7.67468Z" fill="#232323"/>
</svg>
