<svg width="35" height="23" viewBox="0 0 35 23" fill="none" xmlns="http://www.w3.org/2000/svg">
<g id="phone icon">
<g id="Rounded_1_">
<path id="Path" fill-rule="evenodd" clip-rule="evenodd" d="M27.8701 14.7492L24.277 14.4834C23.414 14.4192 22.5653 14.6117 21.957 15.0059L19.354 16.6925C15.3506 15.3725 12.0687 13.255 10.0316 10.6517L12.6487 8.95585C13.257 8.56169 13.554 8.01169 13.455 7.45252L13.0448 5.14252C12.875 4.21669 11.6726 3.52002 10.2297 3.52002H7.78234C6.1838 3.52002 4.85405 4.38169 4.95307 5.41752C5.70283 13.2459 15.3648 19.4975 27.4316 19.9834C29.0301 20.0475 30.3599 19.1859 30.3599 18.15V16.5642C30.374 15.6384 29.2989 14.8592 27.8701 14.7492Z" fill="#EF4565"/>
</g>
</g>
</svg>
