<svg width="37" height="33" viewBox="0 0 37 33" fill="none" xmlns="http://www.w3.org/2000/svg">
<rect width="37" height="33" fill="#1E1E1E"/>
<g id="AQUABLAST_1 coolafz &#38; sergey" clip-path="url(#clip0_0_1)">
<rect width="1600" height="8576" transform="translate(-1128 -8303)" fill="white"/>
<g id="Footer">
<g id="Footer UI">
<g id="Information">
<g id="&#208;&#161;&#208;&#190;&#209;&#134;. &#208;&#161;&#208;&#181;&#209;&#130;&#208;&#184;">
<g id="instagram black.1">
<path id="Instagram" fill-rule="evenodd" clip-rule="evenodd" d="M18.6668 4.71777C15.0004 4.71777 14.5406 4.73144 13.1007 4.78921C11.6638 4.84685 10.6824 5.04755 9.82373 5.34104C8.93599 5.64438 8.18313 6.0503 7.43257 6.71028C6.68207 7.3703 6.22046 8.03235 5.87551 8.81301C5.54176 9.56812 5.31353 10.4311 5.24799 11.6947C5.18229 12.9609 5.16675 13.3652 5.16675 16.5893C5.16675 19.8134 5.18229 20.2177 5.24799 21.4839C5.31353 22.7475 5.54176 23.6105 5.87551 24.3656C6.22046 25.1463 6.68207 25.8083 7.43257 26.4684C8.18313 27.1283 8.93599 27.5343 9.82373 27.8377C10.6824 28.1311 11.6638 28.3318 13.1007 28.3894C14.5406 28.4472 15.0004 28.4609 18.6668 28.4609C22.3331 28.4609 22.7929 28.4472 24.2328 28.3894C25.6697 28.3318 26.6511 28.1311 27.5098 27.8377C28.3975 27.5343 29.1504 27.1283 29.9009 26.4684C30.6514 25.8083 31.113 25.1463 31.458 24.3656C31.7917 23.6105 32.02 22.7475 32.0855 21.4839C32.1512 20.2177 32.1667 19.8134 32.1667 16.5893C32.1667 13.3652 32.1512 12.9609 32.0855 11.6947C32.02 10.4311 31.7917 9.56812 31.458 8.81301C31.113 8.03235 30.6514 7.3703 29.9009 6.71028C29.1504 6.0503 28.3975 5.64438 27.5098 5.34104C26.6511 5.04755 25.6697 4.84685 24.2328 4.78921C22.7929 4.73144 22.3331 4.71777 18.6668 4.71777ZM18.6668 6.85678C22.2714 6.85678 22.6984 6.86889 24.1219 6.926C25.4381 6.97878 26.153 7.17218 26.6287 7.33476C27.2588 7.55011 27.7085 7.80736 28.1809 8.22281C28.6533 8.63821 28.9459 9.03368 29.1908 9.58781C29.3757 10.0061 29.5956 10.6347 29.6556 11.7922C29.7205 13.044 29.7343 13.4195 29.7343 16.5893C29.7343 19.7591 29.7205 20.1346 29.6556 21.3864C29.5956 22.5439 29.3757 23.1725 29.1908 23.5908C28.9459 24.1449 28.6533 24.5404 28.1809 24.9558C27.7085 25.3713 27.2588 25.6285 26.6287 25.8439C26.153 26.0064 25.4381 26.1998 24.1219 26.2526C22.6986 26.3097 22.2717 26.3218 18.6668 26.3218C15.0618 26.3218 14.6349 26.3097 13.2116 26.2526C11.8954 26.1998 11.1805 26.0064 10.7048 25.8439C10.0747 25.6285 9.62498 25.3713 9.15259 24.9558C8.68021 24.5404 8.38762 24.1449 8.14272 23.5908C7.95784 23.1725 7.73792 22.5439 7.6779 21.3864C7.61295 20.1346 7.59918 19.7591 7.59918 16.5893C7.59918 13.4195 7.61295 13.044 7.6779 11.7922C7.73792 10.6347 7.95784 10.0061 8.14272 9.58781C8.38762 9.03368 8.68016 8.63821 9.15259 8.22281C9.62498 7.80736 10.0747 7.55011 10.7048 7.33476C11.1805 7.17218 11.8954 6.97878 13.2116 6.926C14.6351 6.86889 15.0621 6.85678 18.6668 6.85678ZM11.7344 16.5895C11.7344 13.2226 14.8381 10.4933 18.6668 10.4933C22.4955 10.4933 25.5992 13.2226 25.5992 16.5895C25.5992 19.9563 22.4955 22.6857 18.6668 22.6857C14.8381 22.6857 11.7344 19.9563 11.7344 16.5895ZM18.6668 20.5467C16.1815 20.5467 14.1667 18.775 14.1667 16.5895C14.1667 14.404 16.1815 12.6323 18.6668 12.6323C21.152 12.6323 23.1667 14.404 23.1667 16.5895C23.1667 18.775 21.152 20.5467 18.6668 20.5467ZM25.8732 11.6766C26.7679 11.6766 27.4932 11.0388 27.4932 10.252C27.4932 9.46523 26.7679 8.8274 25.8732 8.8274C24.9785 8.8274 24.2532 9.46523 24.2532 10.252C24.2532 11.0388 24.9785 11.6766 25.8732 11.6766Z" fill="#EF4565"/>
</g>
</g>
</g>
</g>
</g>
</g>
<defs>
<clipPath id="clip0_0_1">
<rect width="1600" height="8576" fill="white" transform="translate(-1128 -8303)"/>
</clipPath>
</defs>
</svg>
