<svg width="28" height="22" viewBox="0 0 28 22" fill="none" xmlns="http://www.w3.org/2000/svg">
<path fill-rule="evenodd" clip-rule="evenodd" d="M6.33337 9.07828C6.33337 5.06809 9.81115 1.82471 14.1112 1.82471C18.4112 1.82471 21.8889 5.06809 21.8889 9.07828C21.8889 13.3993 16.9778 19.3576 14.9667 21.627C14.5223 22.1243 13.7112 22.1243 13.2667 21.627C11.2445 19.3576 6.33337 13.3993 6.33337 9.07828ZM11.3334 9.07802C11.3334 10.508 12.5778 11.6686 14.1112 11.6686C15.6445 11.6686 16.8889 10.508 16.8889 9.07802C16.8889 7.64803 15.6445 6.48746 14.1112 6.48746C12.5778 6.48746 11.3334 7.64803 11.3334 9.07802Z" fill="#EF4565"/>
</svg>
