<svg width="26" height="24" viewBox="0 0 26 24" fill="none" xmlns="http://www.w3.org/2000/svg">
<g clip-path="url(#clip0_56_27)">
<path d="M12.84 2C15.6657 2 16.0182 2.01 17.1269 2.06C18.2345 2.11 18.9885 2.277 19.652 2.525C20.3384 2.779 20.9166 3.123 21.4949 3.678C22.0237 4.1779 22.4329 4.78259 22.694 5.45C22.9509 6.087 23.1256 6.813 23.1776 7.878C23.2265 8.944 23.24 9.283 23.24 12C23.24 14.717 23.2296 15.056 23.1776 16.122C23.1256 17.187 22.9509 17.912 22.694 18.55C22.4337 19.2178 22.0244 19.8226 21.4949 20.322C20.9748 20.8303 20.346 21.2238 19.652 21.475C18.9895 21.722 18.2345 21.89 17.1269 21.94C16.0182 21.987 15.6657 22 12.84 22C10.0143 22 9.66176 21.99 8.55312 21.94C7.44552 21.89 6.69152 21.722 6.028 21.475C5.33362 21.2245 4.70463 20.8309 4.18512 20.322C3.65619 19.8222 3.24697 19.2175 2.986 18.55C2.72808 17.913 2.5544 17.187 2.5024 16.122C2.45352 15.056 2.44 14.717 2.44 12C2.44 9.283 2.4504 8.944 2.5024 7.878C2.5544 6.812 2.72808 6.088 2.986 5.45C3.24625 4.78218 3.65556 4.17732 4.18512 3.678C4.70478 3.16923 5.33373 2.77573 6.028 2.525C6.69152 2.277 7.44448 2.11 8.55312 2.06C9.66176 2.013 10.0143 2 12.84 2ZM12.84 7C11.4609 7 10.1382 7.52678 9.16305 8.46447C8.18786 9.40215 7.64 10.6739 7.64 12C7.64 13.3261 8.18786 14.5979 9.16305 15.5355C10.1382 16.4732 11.4609 17 12.84 17C14.2191 17 15.5418 16.4732 16.517 15.5355C17.4921 14.5979 18.04 13.3261 18.04 12C18.04 10.6739 17.4921 9.40215 16.517 8.46447C15.5418 7.52678 14.2191 7 12.84 7ZM19.6 6.75C19.6 6.41848 19.463 6.10054 19.2192 5.86612C18.9754 5.6317 18.6448 5.5 18.3 5.5C17.9552 5.5 17.6246 5.6317 17.3808 5.86612C17.137 6.10054 17 6.41848 17 6.75C17 7.08152 17.137 7.39946 17.3808 7.63388C17.6246 7.8683 17.9552 8 18.3 8C18.6448 8 18.9754 7.8683 19.2192 7.63388C19.463 7.39946 19.6 7.08152 19.6 6.75ZM12.84 9C13.6675 9 14.4611 9.31607 15.0462 9.87868C15.6313 10.4413 15.96 11.2044 15.96 12C15.96 12.7956 15.6313 13.5587 15.0462 14.1213C14.4611 14.6839 13.6675 15 12.84 15C12.0125 15 11.2189 14.6839 10.6338 14.1213C10.0487 13.5587 9.72 12.7956 9.72 12C9.72 11.2044 10.0487 10.4413 10.6338 9.87868C11.2189 9.31607 12.0125 9 12.84 9Z" fill="white"/>
</g>
<defs>
<clipPath id="clip0_56_27">
<rect width="24.96" height="24" fill="white" transform="translate(0.360001)"/>
</clipPath>
</defs>
</svg>
