<svg width="17" height="17" viewBox="0 0 17 17" fill="none" xmlns="http://www.w3.org/2000/svg">
<rect width="17" height="17" fill="#1E1E1E"/>
<g id="AQUABLAST_1 coolafz &#38; sergey" clip-path="url(#clip0_0_1)">
<rect width="1600" height="8576" transform="translate(-498 -3650)" fill="white"/>
<g id="&#208;&#158;&#209;&#130;&#208;&#183;&#209;&#139;&#208;&#178;&#209;&#139; (4 &#209;&#141;&#208;&#186;&#209;&#128;&#208;&#176;&#208;&#189;)" clip-path="url(#clip1_0_1)">
<rect width="1600" height="720" transform="translate(-498 -362)" fill="#D8EEFE"/>
<g id="&#208;&#158;&#209;&#130;&#208;&#183;&#209;&#139;&#208;&#178; 1">
<rect id="Rectangle 265" x="-361" y="-46.4177" width="407.231" height="233.308" rx="9" fill="#FFFFFE" stroke="#3DA9FC" stroke-width="2"/>
<g id="Group 1161">
<g id="ant-design:star-filled">
<path id="Vector" d="M14.6857 5.95138L10.6269 5.36151L8.81256 1.68323C8.76301 1.58252 8.68148 1.501 8.58077 1.45144C8.3282 1.32675 8.02128 1.43066 7.89499 1.68323L6.08063 5.36151L2.02189 5.95138C1.90999 5.96737 1.80768 6.02012 1.72935 6.10005C1.63466 6.19738 1.58248 6.32832 1.58427 6.4641C1.58607 6.59989 1.6417 6.7294 1.73894 6.82419L4.67549 9.68721L3.98172 13.73C3.96545 13.824 3.97586 13.9207 4.01176 14.0092C4.04766 14.0976 4.10762 14.1742 4.18485 14.2303C4.26207 14.2864 4.35346 14.3197 4.44866 14.3265C4.54386 14.3333 4.63905 14.3132 4.72345 14.2687L8.35378 12.36L11.9841 14.2687C12.0832 14.3214 12.1983 14.339 12.3086 14.3198C12.5868 14.2719 12.7738 14.0081 12.7258 13.73L12.0321 9.68721L14.9686 6.82419C15.0485 6.74586 15.1013 6.64356 15.1173 6.53166C15.1604 6.25191 14.9654 5.99294 14.6857 5.95138Z" fill="#FEA250"/>
</g>
</g>
</g>
</g>
</g>
<defs>
<clipPath id="clip0_0_1">
<rect width="1600" height="8576" fill="white" transform="translate(-498 -3650)"/>
</clipPath>
<clipPath id="clip1_0_1">
<rect width="1600" height="720" fill="white" transform="translate(-498 -362)"/>
</clipPath>
</defs>
</svg>
